<?xml version="1.0" standalone="no"?>
<!DOCTYPE svg PUBLIC "-//W3C//DTD SVG 20010904//EN"
 "http://www.w3.org/TR/2001/REC-SVG-20010904/DTD/svg10.dtd">
<svg version="1.0" xmlns="http://www.w3.org/2000/svg"
 width="512.000000pt" height="512.000000pt" viewBox="0 0 512.000000 512.000000"
 preserveAspectRatio="xMidYMid meet">

<g transform="translate(0.000000,512.000000) scale(0.100000,-0.100000)"
fill="#000000" stroke="none">
<path d="M4535 4751 c-16 -4 -39 -13 -50 -19 -11 -6 -200 -191 -420 -411 -220
-221 -405 -401 -411 -401 -6 0 -67 27 -135 59 -68 33 -185 80 -260 104 -418
139 -817 155 -1225 52 -173 -44 -294 -90 -489 -184 -483 -234 -956 -619 -1379
-1121 -158 -187 -180 -231 -156 -319 20 -77 324 -430 549 -639 186 -174 296
-263 550 -450 l33 -25 -375 -376 c-206 -207 -381 -387 -387 -401 -18 -33 -16
-119 3 -155 17 -34 50 -67 87 -85 33 -18 119 -16 155 3 17 9 210 196 430 416
220 221 405 401 411 401 6 0 67 -27 135 -59 68 -33 185 -80 260 -104 418 -139
817 -155 1225 -52 173 44 294 90 489 184 483 234 956 619 1379 1121 158 187
180 231 156 319 -20 77 -324 430 -549 639 -186 174 -296 263 -550 450 l-33 25
375 376 c206 207 381 387 387 401 17 31 16 119 0 150 -40 78 -125 120 -205
101z m-1778 -926 c196 -26 392 -81 567 -160 l59 -26 -158 -159 -158 -158 -81
43 c-45 24 -121 56 -171 71 -83 26 -103 28 -255 28 -152 0 -172 -2 -255 -28
-553 -170 -814 -772 -557 -1288 l48 -97 -192 -192 c-116 -116 -197 -190 -206
-187 -20 8 -241 171 -333 245 -205 167 -467 422 -609 596 l-38 47 38 47 c71
87 311 337 395 413 337 303 574 468 879 614 226 108 434 168 685 199 76 10
235 6 342 -8z m1078 -455 c304 -218 625 -514 829 -763 l38 -47 -38 -47 c-22
-26 -100 -113 -175 -193 -232 -247 -479 -458 -734 -627 -477 -317 -958 -455
-1385 -399 -204 27 -397 81 -574 161 l-59 26 158 159 158 158 81 -43 c45 -24
122 -56 171 -71 83 -26 103 -28 255 -28 152 0 172 2 255 28 49 15 125 46 169
69 440 229 613 772 388 1217 l-48 95 190 193 c105 105 195 192 200 192 5 0 59
-36 121 -80z m-1107 -290 c34 -12 62 -25 62 -28 0 -9 -713 -722 -722 -722 -13
0 -49 127 -54 195 -21 260 167 511 429 570 81 19 204 12 285 -15z m351 -352
c104 -306 -89 -636 -411 -704 -89 -19 -187 -13 -275 17 -35 11 -63 24 -63 27
0 9 713 722 722 722 3 0 16 -28 27 -62z"/>
</g>
</svg>
